<mxfile host="Electron" modified="2025-04-26T08:01:08.358Z" agent="Mozilla/5.0 (Windows NT 10.0; Win64; x64) AppleWebKit/537.36 (KHTML, like Gecko) draw.io/24.4.0 Chrome/120.0.6099.109 Electron/28.1.0 Safari/537.36" etag="t2ZO07cgKXDNpUk084Lk" version="24.4.0" type="device">
  <diagram name="Side-1" id="JZsY14V3T5-fmhvASPwl">
    <mxGraphModel dx="934" dy="601" grid="1" gridSize="10" guides="1" tooltips="1" connect="1" arrows="1" fold="1" page="1" pageScale="1" pageWidth="827" pageHeight="1169" math="0" shadow="0">
      <root>
        <mxCell id="0" />
        <mxCell id="1" parent="0" />
        <mxCell id="0H1u7QzUPN0gzGXx8DYW-1" value="Åbn spillet" style="ellipse;whiteSpace=wrap;html=1;" vertex="1" parent="1">
          <mxGeometry x="350" y="230" width="120" height="80" as="geometry" />
        </mxCell>
        <mxCell id="0H1u7QzUPN0gzGXx8DYW-2" value="Start spil" style="rhombus;whiteSpace=wrap;html=1;" vertex="1" parent="1">
          <mxGeometry x="370" y="340" width="80" height="80" as="geometry" />
        </mxCell>
        <mxCell id="0H1u7QzUPN0gzGXx8DYW-3" value="Tutorial" style="rhombus;whiteSpace=wrap;html=1;" vertex="1" parent="1">
          <mxGeometry x="490" y="340" width="80" height="80" as="geometry" />
        </mxCell>
        <mxCell id="0H1u7QzUPN0gzGXx8DYW-4" value="Slut spil" style="rhombus;whiteSpace=wrap;html=1;" vertex="1" parent="1">
          <mxGeometry x="610" y="340" width="80" height="80" as="geometry" />
        </mxCell>
        <mxCell id="0H1u7QzUPN0gzGXx8DYW-8" value="" style="endArrow=classic;html=1;rounded=0;exitX=0.5;exitY=1;exitDx=0;exitDy=0;" edge="1" parent="1" source="0H1u7QzUPN0gzGXx8DYW-1">
          <mxGeometry width="50" height="50" relative="1" as="geometry">
            <mxPoint x="380" y="420" as="sourcePoint" />
            <mxPoint x="410" y="340" as="targetPoint" />
          </mxGeometry>
        </mxCell>
        <mxCell id="0H1u7QzUPN0gzGXx8DYW-9" value="Ja" style="endArrow=classic;html=1;rounded=0;exitX=0.5;exitY=1;exitDx=0;exitDy=0;" edge="1" parent="1" source="0H1u7QzUPN0gzGXx8DYW-2">
          <mxGeometry width="50" height="50" relative="1" as="geometry">
            <mxPoint x="390" y="420" as="sourcePoint" />
            <mxPoint x="410" y="470" as="targetPoint" />
          </mxGeometry>
        </mxCell>
        <mxCell id="0H1u7QzUPN0gzGXx8DYW-10" value="Nej" style="endArrow=classic;html=1;rounded=0;exitX=1;exitY=0.5;exitDx=0;exitDy=0;entryX=0;entryY=0.5;entryDx=0;entryDy=0;" edge="1" parent="1" source="0H1u7QzUPN0gzGXx8DYW-2" target="0H1u7QzUPN0gzGXx8DYW-3">
          <mxGeometry width="50" height="50" relative="1" as="geometry">
            <mxPoint x="390" y="420" as="sourcePoint" />
            <mxPoint x="440" y="370" as="targetPoint" />
          </mxGeometry>
        </mxCell>
        <mxCell id="0H1u7QzUPN0gzGXx8DYW-11" value="Ja" style="endArrow=classic;html=1;rounded=0;exitX=0.5;exitY=1;exitDx=0;exitDy=0;" edge="1" parent="1" source="0H1u7QzUPN0gzGXx8DYW-3">
          <mxGeometry width="50" height="50" relative="1" as="geometry">
            <mxPoint x="510" y="400" as="sourcePoint" />
            <mxPoint x="530" y="470" as="targetPoint" />
          </mxGeometry>
        </mxCell>
        <mxCell id="0H1u7QzUPN0gzGXx8DYW-12" value="Nej" style="endArrow=classic;html=1;rounded=0;exitX=1;exitY=0.5;exitDx=0;exitDy=0;entryX=0;entryY=0.5;entryDx=0;entryDy=0;" edge="1" parent="1" source="0H1u7QzUPN0gzGXx8DYW-3" target="0H1u7QzUPN0gzGXx8DYW-4">
          <mxGeometry width="50" height="50" relative="1" as="geometry">
            <mxPoint x="510" y="400" as="sourcePoint" />
            <mxPoint x="610" y="380" as="targetPoint" />
          </mxGeometry>
        </mxCell>
        <mxCell id="0H1u7QzUPN0gzGXx8DYW-14" value="Tryk på start spil knap" style="shape=parallelogram;perimeter=parallelogramPerimeter;whiteSpace=wrap;html=1;fixedSize=1;" vertex="1" parent="1">
          <mxGeometry x="355" y="470" width="110" height="50" as="geometry" />
        </mxCell>
        <mxCell id="0H1u7QzUPN0gzGXx8DYW-15" value="Tryk på tutorial knap" style="shape=parallelogram;perimeter=parallelogramPerimeter;whiteSpace=wrap;html=1;fixedSize=1;" vertex="1" parent="1">
          <mxGeometry x="470" y="470" width="110" height="50" as="geometry" />
        </mxCell>
        <mxCell id="0H1u7QzUPN0gzGXx8DYW-16" value="Tryk på slut spil knap" style="shape=parallelogram;perimeter=parallelogramPerimeter;whiteSpace=wrap;html=1;fixedSize=1;" vertex="1" parent="1">
          <mxGeometry x="595" y="470" width="110" height="50" as="geometry" />
        </mxCell>
        <mxCell id="0H1u7QzUPN0gzGXx8DYW-17" value="Ja" style="endArrow=classic;html=1;rounded=0;exitX=0.5;exitY=1;exitDx=0;exitDy=0;" edge="1" parent="1" source="0H1u7QzUPN0gzGXx8DYW-4" target="0H1u7QzUPN0gzGXx8DYW-16">
          <mxGeometry width="50" height="50" relative="1" as="geometry">
            <mxPoint x="540" y="480" as="sourcePoint" />
            <mxPoint x="590" y="430" as="targetPoint" />
          </mxGeometry>
        </mxCell>
        <mxCell id="0H1u7QzUPN0gzGXx8DYW-18" value="Spilregler vises" style="rounded=0;whiteSpace=wrap;html=1;" vertex="1" parent="1">
          <mxGeometry x="472.5" y="550" width="105" height="50" as="geometry" />
        </mxCell>
        <mxCell id="0H1u7QzUPN0gzGXx8DYW-19" value="" style="endArrow=classic;html=1;rounded=0;exitX=0.5;exitY=1;exitDx=0;exitDy=0;entryX=0.5;entryY=0;entryDx=0;entryDy=0;" edge="1" parent="1" source="0H1u7QzUPN0gzGXx8DYW-15" target="0H1u7QzUPN0gzGXx8DYW-18">
          <mxGeometry width="50" height="50" relative="1" as="geometry">
            <mxPoint x="540" y="530" as="sourcePoint" />
            <mxPoint x="590" y="480" as="targetPoint" />
          </mxGeometry>
        </mxCell>
        <mxCell id="0H1u7QzUPN0gzGXx8DYW-21" value="Gå tilbage?" style="rhombus;whiteSpace=wrap;html=1;" vertex="1" parent="1">
          <mxGeometry x="485" y="620" width="80" height="80" as="geometry" />
        </mxCell>
        <mxCell id="0H1u7QzUPN0gzGXx8DYW-22" value="" style="endArrow=classic;html=1;rounded=0;exitX=0.5;exitY=1;exitDx=0;exitDy=0;entryX=0.5;entryY=0;entryDx=0;entryDy=0;" edge="1" parent="1" source="0H1u7QzUPN0gzGXx8DYW-18" target="0H1u7QzUPN0gzGXx8DYW-21">
          <mxGeometry width="50" height="50" relative="1" as="geometry">
            <mxPoint x="540" y="580" as="sourcePoint" />
            <mxPoint x="590" y="530" as="targetPoint" />
          </mxGeometry>
        </mxCell>
        <mxCell id="0H1u7QzUPN0gzGXx8DYW-23" value="Ja" style="endArrow=classic;html=1;rounded=0;exitX=1;exitY=0.5;exitDx=0;exitDy=0;entryX=1;entryY=0.5;entryDx=0;entryDy=0;" edge="1" parent="1" source="0H1u7QzUPN0gzGXx8DYW-21" target="0H1u7QzUPN0gzGXx8DYW-1">
          <mxGeometry width="50" height="50" relative="1" as="geometry">
            <mxPoint x="540" y="580" as="sourcePoint" />
            <mxPoint x="800" y="440" as="targetPoint" />
            <Array as="points">
              <mxPoint x="730" y="660" />
              <mxPoint x="730" y="270" />
            </Array>
          </mxGeometry>
        </mxCell>
        <mxCell id="0H1u7QzUPN0gzGXx8DYW-24" value="Nej" style="endArrow=classic;html=1;rounded=0;exitX=0.5;exitY=0;exitDx=0;exitDy=0;entryX=1;entryY=0.5;entryDx=0;entryDy=0;" edge="1" parent="1" source="0H1u7QzUPN0gzGXx8DYW-4" target="0H1u7QzUPN0gzGXx8DYW-1">
          <mxGeometry width="50" height="50" relative="1" as="geometry">
            <mxPoint x="520" y="520" as="sourcePoint" />
            <mxPoint x="570" y="470" as="targetPoint" />
            <Array as="points">
              <mxPoint x="650" y="300" />
              <mxPoint x="470" y="300" />
            </Array>
          </mxGeometry>
        </mxCell>
        <mxCell id="0H1u7QzUPN0gzGXx8DYW-25" value="Spil slutter" style="ellipse;whiteSpace=wrap;html=1;" vertex="1" parent="1">
          <mxGeometry x="602.5" y="540" width="95" height="70" as="geometry" />
        </mxCell>
        <mxCell id="0H1u7QzUPN0gzGXx8DYW-26" value="" style="endArrow=classic;html=1;rounded=0;entryX=0.5;entryY=0;entryDx=0;entryDy=0;exitX=0.5;exitY=1;exitDx=0;exitDy=0;" edge="1" parent="1" source="0H1u7QzUPN0gzGXx8DYW-16" target="0H1u7QzUPN0gzGXx8DYW-25">
          <mxGeometry width="50" height="50" relative="1" as="geometry">
            <mxPoint x="520" y="520" as="sourcePoint" />
            <mxPoint x="570" y="470" as="targetPoint" />
          </mxGeometry>
        </mxCell>
        <mxCell id="0H1u7QzUPN0gzGXx8DYW-27" value="Nej" style="endArrow=classic;html=1;rounded=0;exitX=0;exitY=0.5;exitDx=0;exitDy=0;entryX=0;entryY=0.5;entryDx=0;entryDy=0;" edge="1" parent="1" source="0H1u7QzUPN0gzGXx8DYW-21" target="0H1u7QzUPN0gzGXx8DYW-18">
          <mxGeometry width="50" height="50" relative="1" as="geometry">
            <mxPoint x="520" y="580" as="sourcePoint" />
            <mxPoint x="440" y="620" as="targetPoint" />
            <Array as="points">
              <mxPoint x="440" y="660" />
              <mxPoint x="440" y="575" />
            </Array>
          </mxGeometry>
        </mxCell>
        <mxCell id="0H1u7QzUPN0gzGXx8DYW-28" value="Is vs Burger" style="rhombus;whiteSpace=wrap;html=1;" vertex="1" parent="1">
          <mxGeometry x="230" y="660" width="80" height="80" as="geometry" />
        </mxCell>
        <mxCell id="0H1u7QzUPN0gzGXx8DYW-29" value="&quot;Vælg et level&quot;" style="rounded=0;whiteSpace=wrap;html=1;" vertex="1" parent="1">
          <mxGeometry x="220" y="470" width="100" height="50" as="geometry" />
        </mxCell>
        <mxCell id="0H1u7QzUPN0gzGXx8DYW-30" value="" style="endArrow=classic;html=1;rounded=0;exitX=0;exitY=0.5;exitDx=0;exitDy=0;entryX=1;entryY=0.5;entryDx=0;entryDy=0;" edge="1" parent="1" source="0H1u7QzUPN0gzGXx8DYW-14" target="0H1u7QzUPN0gzGXx8DYW-29">
          <mxGeometry width="50" height="50" relative="1" as="geometry">
            <mxPoint x="440" y="520" as="sourcePoint" />
            <mxPoint x="490" y="470" as="targetPoint" />
          </mxGeometry>
        </mxCell>
        <mxCell id="0H1u7QzUPN0gzGXx8DYW-31" value="" style="endArrow=classic;html=1;rounded=0;exitX=0.5;exitY=1;exitDx=0;exitDy=0;entryX=0.5;entryY=0;entryDx=0;entryDy=0;" edge="1" parent="1" source="0H1u7QzUPN0gzGXx8DYW-29" target="0H1u7QzUPN0gzGXx8DYW-36">
          <mxGeometry width="50" height="50" relative="1" as="geometry">
            <mxPoint x="410" y="580" as="sourcePoint" />
            <mxPoint x="460" y="530" as="targetPoint" />
          </mxGeometry>
        </mxCell>
        <mxCell id="0H1u7QzUPN0gzGXx8DYW-32" value="Nej" style="endArrow=classic;html=1;rounded=0;exitX=0.5;exitY=1;exitDx=0;exitDy=0;" edge="1" parent="1" source="0H1u7QzUPN0gzGXx8DYW-28" target="0H1u7QzUPN0gzGXx8DYW-33">
          <mxGeometry width="50" height="50" relative="1" as="geometry">
            <mxPoint x="430" y="780" as="sourcePoint" />
            <mxPoint x="270" y="780" as="targetPoint" />
          </mxGeometry>
        </mxCell>
        <mxCell id="0H1u7QzUPN0gzGXx8DYW-33" value="Pomfrit vs doughnut" style="rhombus;whiteSpace=wrap;html=1;" vertex="1" parent="1">
          <mxGeometry x="230" y="780" width="80" height="80" as="geometry" />
        </mxCell>
        <mxCell id="0H1u7QzUPN0gzGXx8DYW-34" value="Nej" style="endArrow=classic;html=1;rounded=0;exitX=0.5;exitY=1;exitDx=0;exitDy=0;" edge="1" parent="1" source="0H1u7QzUPN0gzGXx8DYW-33" target="0H1u7QzUPN0gzGXx8DYW-35">
          <mxGeometry width="50" height="50" relative="1" as="geometry">
            <mxPoint x="430" y="780" as="sourcePoint" />
            <mxPoint x="270" y="900" as="targetPoint" />
          </mxGeometry>
        </mxCell>
        <mxCell id="0H1u7QzUPN0gzGXx8DYW-35" value="Banan vs popcorn" style="rhombus;whiteSpace=wrap;html=1;" vertex="1" parent="1">
          <mxGeometry x="230" y="890" width="80" height="80" as="geometry" />
        </mxCell>
        <mxCell id="0H1u7QzUPN0gzGXx8DYW-36" value="Skift ansigt?" style="rhombus;whiteSpace=wrap;html=1;" vertex="1" parent="1">
          <mxGeometry x="230" y="545" width="80" height="80" as="geometry" />
        </mxCell>
        <mxCell id="0H1u7QzUPN0gzGXx8DYW-37" value="Skift ansigt knap" style="shape=parallelogram;perimeter=parallelogramPerimeter;whiteSpace=wrap;html=1;fixedSize=1;" vertex="1" parent="1">
          <mxGeometry x="340" y="560" width="89" height="50" as="geometry" />
        </mxCell>
        <mxCell id="0H1u7QzUPN0gzGXx8DYW-38" value="Ja" style="endArrow=classic;html=1;rounded=0;exitX=1;exitY=0.5;exitDx=0;exitDy=0;entryX=0;entryY=0.5;entryDx=0;entryDy=0;" edge="1" parent="1" source="0H1u7QzUPN0gzGXx8DYW-36" target="0H1u7QzUPN0gzGXx8DYW-37">
          <mxGeometry width="50" height="50" relative="1" as="geometry">
            <mxPoint x="430" y="690" as="sourcePoint" />
            <mxPoint x="480" y="640" as="targetPoint" />
          </mxGeometry>
        </mxCell>
        <mxCell id="0H1u7QzUPN0gzGXx8DYW-39" value="Nej" style="endArrow=classic;html=1;rounded=0;exitX=0.5;exitY=1;exitDx=0;exitDy=0;entryX=0.5;entryY=0;entryDx=0;entryDy=0;" edge="1" parent="1" source="0H1u7QzUPN0gzGXx8DYW-36" target="0H1u7QzUPN0gzGXx8DYW-28">
          <mxGeometry width="50" height="50" relative="1" as="geometry">
            <mxPoint x="430" y="690" as="sourcePoint" />
            <mxPoint x="480" y="640" as="targetPoint" />
          </mxGeometry>
        </mxCell>
        <mxCell id="0H1u7QzUPN0gzGXx8DYW-40" value="" style="endArrow=classic;html=1;rounded=0;exitX=0.5;exitY=1;exitDx=0;exitDy=0;entryX=1;entryY=0.5;entryDx=0;entryDy=0;" edge="1" parent="1" source="0H1u7QzUPN0gzGXx8DYW-37" target="0H1u7QzUPN0gzGXx8DYW-28">
          <mxGeometry width="50" height="50" relative="1" as="geometry">
            <mxPoint x="430" y="790" as="sourcePoint" />
            <mxPoint x="480" y="740" as="targetPoint" />
            <Array as="points">
              <mxPoint x="385" y="700" />
            </Array>
          </mxGeometry>
        </mxCell>
        <mxCell id="0H1u7QzUPN0gzGXx8DYW-41" value="Spil spil" style="rounded=0;whiteSpace=wrap;html=1;" vertex="1" parent="1">
          <mxGeometry x="397.5" y="750" width="70" height="40" as="geometry" />
        </mxCell>
        <mxCell id="0H1u7QzUPN0gzGXx8DYW-42" value="Ja" style="endArrow=classic;html=1;rounded=0;exitX=1;exitY=0.5;exitDx=0;exitDy=0;entryX=0;entryY=0.5;entryDx=0;entryDy=0;" edge="1" parent="1" source="0H1u7QzUPN0gzGXx8DYW-33" target="0H1u7QzUPN0gzGXx8DYW-41">
          <mxGeometry width="50" height="50" relative="1" as="geometry">
            <mxPoint x="430" y="860" as="sourcePoint" />
            <mxPoint x="480" y="810" as="targetPoint" />
            <Array as="points">
              <mxPoint x="350" y="820" />
              <mxPoint x="350" y="770" />
            </Array>
          </mxGeometry>
        </mxCell>
        <mxCell id="0H1u7QzUPN0gzGXx8DYW-43" value="Ja" style="endArrow=classic;html=1;rounded=0;exitX=0.5;exitY=1;exitDx=0;exitDy=0;entryX=0;entryY=0.5;entryDx=0;entryDy=0;" edge="1" parent="1" source="0H1u7QzUPN0gzGXx8DYW-28" target="0H1u7QzUPN0gzGXx8DYW-41">
          <mxGeometry width="50" height="50" relative="1" as="geometry">
            <mxPoint x="430" y="860" as="sourcePoint" />
            <mxPoint x="480" y="810" as="targetPoint" />
            <Array as="points">
              <mxPoint x="350" y="740" />
              <mxPoint x="350" y="770" />
            </Array>
          </mxGeometry>
        </mxCell>
        <mxCell id="0H1u7QzUPN0gzGXx8DYW-44" value="Ja" style="endArrow=classic;html=1;rounded=0;exitX=1;exitY=0.5;exitDx=0;exitDy=0;entryX=0;entryY=0.5;entryDx=0;entryDy=0;" edge="1" parent="1" source="0H1u7QzUPN0gzGXx8DYW-35" target="0H1u7QzUPN0gzGXx8DYW-41">
          <mxGeometry width="50" height="50" relative="1" as="geometry">
            <mxPoint x="430" y="860" as="sourcePoint" />
            <mxPoint x="480" y="810" as="targetPoint" />
            <Array as="points">
              <mxPoint x="350" y="930" />
              <mxPoint x="350" y="770" />
            </Array>
          </mxGeometry>
        </mxCell>
        <mxCell id="0H1u7QzUPN0gzGXx8DYW-45" value="" style="endArrow=classic;html=1;rounded=0;exitX=1;exitY=0.5;exitDx=0;exitDy=0;" edge="1" parent="1" source="0H1u7QzUPN0gzGXx8DYW-41" target="0H1u7QzUPN0gzGXx8DYW-46">
          <mxGeometry width="50" height="50" relative="1" as="geometry">
            <mxPoint x="427.5" y="740" as="sourcePoint" />
            <mxPoint x="567.5" y="770" as="targetPoint" />
          </mxGeometry>
        </mxCell>
        <mxCell id="0H1u7QzUPN0gzGXx8DYW-46" value="Tryk på menuknap" style="rhombus;whiteSpace=wrap;html=1;" vertex="1" parent="1">
          <mxGeometry x="495" y="730" width="80" height="80" as="geometry" />
        </mxCell>
        <mxCell id="0H1u7QzUPN0gzGXx8DYW-47" value="Nej" style="endArrow=classic;html=1;rounded=0;exitX=0.5;exitY=0;exitDx=0;exitDy=0;entryX=0.5;entryY=0;entryDx=0;entryDy=0;" edge="1" parent="1" source="0H1u7QzUPN0gzGXx8DYW-46" target="0H1u7QzUPN0gzGXx8DYW-41">
          <mxGeometry width="50" height="50" relative="1" as="geometry">
            <mxPoint x="427.5" y="740" as="sourcePoint" />
            <mxPoint x="477.5" y="690" as="targetPoint" />
            <Array as="points">
              <mxPoint x="535.5" y="710" />
              <mxPoint x="432.5" y="710" />
            </Array>
          </mxGeometry>
        </mxCell>
        <mxCell id="0H1u7QzUPN0gzGXx8DYW-48" value="Ja" style="endArrow=classic;html=1;rounded=0;exitX=1;exitY=0.5;exitDx=0;exitDy=0;" edge="1" parent="1" source="0H1u7QzUPN0gzGXx8DYW-46" target="0H1u7QzUPN0gzGXx8DYW-49">
          <mxGeometry width="50" height="50" relative="1" as="geometry">
            <mxPoint x="497.5" y="740" as="sourcePoint" />
            <mxPoint x="597.5" y="870" as="targetPoint" />
          </mxGeometry>
        </mxCell>
        <mxCell id="0H1u7QzUPN0gzGXx8DYW-49" value="Vis menu" style="rounded=0;whiteSpace=wrap;html=1;" vertex="1" parent="1">
          <mxGeometry x="617.5" y="750" width="77.5" height="40" as="geometry" />
        </mxCell>
        <mxCell id="0H1u7QzUPN0gzGXx8DYW-50" value="" style="endArrow=classic;html=1;rounded=0;exitX=0.5;exitY=1;exitDx=0;exitDy=0;" edge="1" parent="1" source="0H1u7QzUPN0gzGXx8DYW-49" target="0H1u7QzUPN0gzGXx8DYW-51">
          <mxGeometry width="50" height="50" relative="1" as="geometry">
            <mxPoint x="497.5" y="830" as="sourcePoint" />
            <mxPoint x="656.5" y="820" as="targetPoint" />
          </mxGeometry>
        </mxCell>
        <mxCell id="0H1u7QzUPN0gzGXx8DYW-51" value="Slut spil?" style="rhombus;whiteSpace=wrap;html=1;" vertex="1" parent="1">
          <mxGeometry x="617.5" y="830" width="80" height="80" as="geometry" />
        </mxCell>
        <mxCell id="0H1u7QzUPN0gzGXx8DYW-52" value="Nej" style="endArrow=classic;html=1;rounded=0;exitX=0;exitY=0.5;exitDx=0;exitDy=0;" edge="1" parent="1" source="0H1u7QzUPN0gzGXx8DYW-51" target="0H1u7QzUPN0gzGXx8DYW-53">
          <mxGeometry width="50" height="50" relative="1" as="geometry">
            <mxPoint x="497.5" y="830" as="sourcePoint" />
            <mxPoint x="547.5" y="780" as="targetPoint" />
          </mxGeometry>
        </mxCell>
        <mxCell id="0H1u7QzUPN0gzGXx8DYW-53" value="Spil videre?" style="rhombus;whiteSpace=wrap;html=1;" vertex="1" parent="1">
          <mxGeometry x="495" y="830" width="80" height="80" as="geometry" />
        </mxCell>
        <mxCell id="0H1u7QzUPN0gzGXx8DYW-54" value="Ja" style="endArrow=classic;html=1;rounded=0;exitX=0;exitY=0.5;exitDx=0;exitDy=0;entryX=0.5;entryY=1;entryDx=0;entryDy=0;" edge="1" parent="1" source="0H1u7QzUPN0gzGXx8DYW-53" target="0H1u7QzUPN0gzGXx8DYW-41">
          <mxGeometry width="50" height="50" relative="1" as="geometry">
            <mxPoint x="497.5" y="830" as="sourcePoint" />
            <mxPoint x="547.5" y="780" as="targetPoint" />
            <Array as="points">
              <mxPoint x="432.5" y="870" />
            </Array>
          </mxGeometry>
        </mxCell>
        <mxCell id="0H1u7QzUPN0gzGXx8DYW-55" value="Nej" style="endArrow=classic;html=1;rounded=0;exitX=0.5;exitY=0;exitDx=0;exitDy=0;entryX=0;entryY=1;entryDx=0;entryDy=0;" edge="1" parent="1" source="0H1u7QzUPN0gzGXx8DYW-53" target="0H1u7QzUPN0gzGXx8DYW-49">
          <mxGeometry width="50" height="50" relative="1" as="geometry">
            <mxPoint x="497.5" y="830" as="sourcePoint" />
            <mxPoint x="547.5" y="780" as="targetPoint" />
            <Array as="points">
              <mxPoint x="617.5" y="830" />
            </Array>
          </mxGeometry>
        </mxCell>
        <mxCell id="0H1u7QzUPN0gzGXx8DYW-56" value="" style="endArrow=classic;html=1;rounded=0;exitX=0.5;exitY=1;exitDx=0;exitDy=0;" edge="1" parent="1" source="0H1u7QzUPN0gzGXx8DYW-51" target="0H1u7QzUPN0gzGXx8DYW-57">
          <mxGeometry width="50" height="50" relative="1" as="geometry">
            <mxPoint x="497.5" y="890" as="sourcePoint" />
            <mxPoint x="657.5" y="950" as="targetPoint" />
          </mxGeometry>
        </mxCell>
        <mxCell id="0H1u7QzUPN0gzGXx8DYW-57" value="Spil slutter" style="ellipse;whiteSpace=wrap;html=1;" vertex="1" parent="1">
          <mxGeometry x="617.5" y="930" width="80" height="50" as="geometry" />
        </mxCell>
      </root>
    </mxGraphModel>
  </diagram>
</mxfile>
